<!-- Fish icon by Kim Sun Young from Noun Project -->
<svg xmlns="http://www.w3.org/2000/svg" version="1.1" viewBox="-5 36 110 38">
 <path d="m13.793 50.672c0 1.0859-1.6328 1.0859-1.6328 0 0-1.0898 1.6328-1.0898 1.6328 0"/>
 <path d="m5.5195 52.289 2.7422-0.62109c0.86328 0.16016 1.7031 0.42969 2.4961 0.80469 0.55078 0.26562 1.082 0.57422 1.5781 0.93359-0.90625-0.039062-1.8125-0.12891-2.7109-0.26953-0.83984-0.13281-1.668-0.30859-2.4883-0.52344-0.19531-0.050781-0.39844 0.042969-0.48828 0.22656-0.089844 0.18359-0.046876 0.41016 0.10547 0.54688 5.6484 5.0508 20.578 6.8242 30.664 6.9805h-0.003907c1.1836 1.6055 2.5977 3.0273 4.1992 4.2148 0.042969 0.027344 0.09375 0.035157 0.14453 0.015625 2.1211-0.91016 3.9102-2.4492 5.125-4.4102-0.097656-0.082031-0.20703-0.15234-0.32422-0.20703 4.5039-0.57812 8.9336-1.6367 13.215-3.1523 0.30859-0.09375 0.60937-0.17578 0.91016-0.26172h0.003906c2.3867 1.6406 5.0117 2.9023 7.7812 3.7422 0.035156 0.007812 0.070312 0.011718 0.10547 0.011718 0.082031 0 0.16016-0.023437 0.23047-0.066406 0.12891-0.082031 3.1367-2.0078 3.9062-4.5117 0.082031-0.26953 0.035156-0.5625-0.13281-0.79297-0.25781-0.30859-0.58594-0.54688-0.95703-0.70312 1.6953-0.23828 3.4062-0.38281 5.1172-0.42969 0.019531 0 0.46484-0.054687 1.0234-0.125 4.7617 2.3789 12.84 5.9297 15.148 5.9297 0.13281 0.003906 0.26172-0.011719 0.38672-0.050782 0.19141-0.058593 0.34766-0.19922 0.42188-0.38672 0.50391-1.3281-2.8164-7.6211-4.0156-9.8203 0.70703-1.3359 1.4961-2.625 2.3672-3.8594 2.125-3.1836 3.3906-5.1797 2.7695-6.125-0.25-0.37891-0.73047-0.50391-1.418-0.375-3.5273 0.65625-14.027 7.4102-15.137 8.1328l-1.0078 0.14062c-0.26953-0.0625-0.52734-0.12109-0.80469-0.1875-7.9531-1.9805-16.027-3.4297-24.176-4.3359l0.41406-0.88281v-0.003906c0.082031-0.17188 0.039062-0.375-0.10156-0.5-4.0156-3.625-10.875-5.8633-11.164-5.957-0.082031-0.023437-0.17187-0.027344-0.25781 0-2.5273 0.77344-6 4.1211-8.4844 6.8047h0.003906c-7.5469 0.37891-14.98 1.9727-22.016 4.7227-4.3984 1.5859-5.5586 4.5312-5.6445 4.7148h-0.003906c-0.070313 0.15234-0.054688 0.33594 0.046875 0.47266 0.097656 0.13672 0.26562 0.19922 0.42969 0.16406zm68.188-4.7344h0.003907c0.25781 0 0.49219 0.15625 0.58984 0.39453 0.10156 0.24219 0.046875 0.51562-0.13672 0.69922-0.18359 0.18359-0.46094 0.23828-0.69922 0.14062-0.24219-0.10156-0.39844-0.33203-0.39844-0.59375 0-0.16797 0.070313-0.33203 0.19141-0.45312 0.11719-0.12109 0.28125-0.1875 0.45313-0.1875zm-4.5703-0.61719h0.003906c0.32031 0 0.60938 0.19141 0.73047 0.48828 0.125 0.29688 0.054687 0.63672-0.17188 0.86328-0.22656 0.22656-0.56641 0.29297-0.86328 0.17188-0.29297-0.125-0.48828-0.41406-0.48828-0.73438 0-0.43359 0.35547-0.78906 0.79297-0.78906zm-3.5352 1.707h0.003907c0.25781 0 0.49219 0.15625 0.59375 0.39844 0.097656 0.23828 0.042969 0.51562-0.14062 0.69531-0.18359 0.18359-0.45703 0.23828-0.69922 0.14062-0.23828-0.097656-0.39453-0.33203-0.39453-0.59375 0-0.35156 0.28516-0.64062 0.64062-0.64062zm-3.4883-1.5586h0.003907c0.32031 0 0.60937 0.19531 0.73047 0.48828 0.125 0.29688 0.054688 0.63672-0.17188 0.86328-0.22656 0.22656-0.56641 0.29688-0.86328 0.17188-0.29297-0.12109-0.48828-0.41016-0.48828-0.73047 0-0.21094 0.085937-0.41016 0.23438-0.55859 0.14844-0.14844 0.34766-0.23437 0.55859-0.23437zm-3.3281-0.64063h0.003906c0.26172 0 0.49609 0.15625 0.59375 0.39453 0.10156 0.24219 0.042969 0.51562-0.13672 0.69922-0.18359 0.18359-0.46094 0.23828-0.69922 0.14063-0.24219-0.097657-0.39844-0.33203-0.39844-0.59375 0-0.16797 0.070312-0.33203 0.1875-0.45313 0.12109-0.12109 0.28516-0.1875 0.45312-0.1875zm-3.0078 1.75h0.003906c0.32031 0 0.60938 0.19531 0.73047 0.48828 0.125 0.29688 0.054687 0.63672-0.17188 0.86328-0.22656 0.22656-0.56641 0.29688-0.86328 0.17188-0.29297-0.12109-0.48828-0.41016-0.48828-0.73047 0-0.4375 0.35547-0.79297 0.79297-0.79297zm-2.082-2.6914h0.003907c0.32031 0 0.60938 0.19141 0.73047 0.48828 0.125 0.29687 0.054687 0.63672-0.17188 0.86328-0.22656 0.22656-0.56641 0.29297-0.85937 0.17188-0.29688-0.12109-0.49219-0.41016-0.49219-0.73047 0-0.4375 0.35547-0.79297 0.79297-0.79297zm-2.875 2.0508h0.003907c0.26172 0 0.49609 0.15625 0.59375 0.39453 0.10156 0.24219 0.042969 0.51562-0.14062 0.69922-0.17969 0.18359-0.45703 0.23828-0.69531 0.14062-0.24219-0.10156-0.39844-0.33203-0.39844-0.59375 0-0.16797 0.070312-0.33203 0.1875-0.45312 0.12109-0.12109 0.28516-0.1875 0.45312-0.1875zm-2.3477-3.7227c0.26172 0 0.49609 0.15625 0.59375 0.39453 0.10156 0.24219 0.042969 0.51563-0.13672 0.69922-0.18359 0.18359-0.46094 0.23828-0.69922 0.14062-0.24219-0.097656-0.39844-0.33203-0.39844-0.59375 0-0.16797 0.070313-0.33203 0.1875-0.45312 0.12109-0.12109 0.28516-0.1875 0.45312-0.1875zm-1.1094 2.7812c0.32031 0 0.60938 0.19141 0.73047 0.48828 0.125 0.29688 0.054688 0.63672-0.17188 0.86328-0.22656 0.22656-0.56641 0.29297-0.85938 0.17188-0.29688-0.125-0.49219-0.41406-0.49219-0.73438 0-0.20703 0.085938-0.41016 0.23438-0.55859 0.14844-0.14844 0.34766-0.23047 0.55859-0.23047zm-3.5664-1.1953c0.25781 0 0.49219 0.15625 0.59375 0.39453 0.097656 0.23828 0.042969 0.51562-0.14062 0.69922-0.18359 0.18359-0.45703 0.23828-0.69922 0.13672-0.23828-0.097657-0.39453-0.33203-0.39453-0.58984 0-0.17188 0.066406-0.33594 0.1875-0.45312 0.12109-0.12109 0.28516-0.1875 0.45312-0.1875zm-1.5703 2.1367c0.26172 0 0.49219 0.15625 0.59375 0.39453 0.097657 0.24219 0.042969 0.51562-0.14062 0.69922-0.18359 0.18359-0.45703 0.23828-0.69922 0.14062-0.23828-0.10156-0.39453-0.33203-0.39453-0.59375 0-0.16797 0.066406-0.33203 0.1875-0.45312 0.12109-0.12109 0.28516-0.1875 0.45312-0.1875zm-2.7734-3.7227c0.25781 0 0.49219 0.15625 0.59375 0.39453 0.097656 0.24219 0.042969 0.51563-0.14062 0.69922-0.18359 0.18359-0.46094 0.23828-0.69922 0.14062s-0.39453-0.33203-0.39453-0.59375c0-0.16797 0.066406-0.33203 0.1875-0.45312 0.12109-0.12109 0.28125-0.1875 0.45312-0.1875zm-0.79297 2.2266c0.32031 0 0.60938 0.19141 0.73047 0.48828 0.125 0.29688 0.054687 0.63672-0.17188 0.86328-0.22656 0.22656-0.56641 0.29297-0.85938 0.17188-0.29688-0.125-0.49219-0.41016-0.49219-0.73047 0-0.21094 0.085937-0.41406 0.23437-0.5625 0.14844-0.14844 0.34766-0.23047 0.55859-0.23047zm-3.4609-0.64062c0.25781 0 0.49219 0.15625 0.59375 0.39453 0.097656 0.23828 0.042969 0.51562-0.14062 0.69922-0.18359 0.18359-0.46094 0.23828-0.69922 0.13672-0.23828-0.097657-0.39453-0.33203-0.39453-0.58984 0-0.17188 0.066406-0.33594 0.1875-0.45312 0.12109-0.12109 0.28125-0.1875 0.45312-0.1875zm-2.875 1.75c0.32031 0 0.60938 0.19141 0.73047 0.48828 0.125 0.29688 0.058593 0.63672-0.16797 0.86328-0.22656 0.22656-0.57031 0.29297-0.86328 0.17188-0.29688-0.125-0.49219-0.41406-0.49219-0.73438 0-0.4375 0.35547-0.78906 0.79297-0.78906zm-2.082-2.6953c0.32031 0 0.60937 0.19531 0.73437 0.48828 0.12109 0.29687 0.054688 0.63672-0.17187 0.86328-0.22656 0.22656-0.57031 0.29688-0.86328 0.17188-0.29688-0.12109-0.49219-0.41016-0.49219-0.73047 0-0.21094 0.085937-0.41016 0.23438-0.55859 0.14844-0.14844 0.34766-0.23438 0.55859-0.23438zm-3.0078 2.0508c0.25781 0 0.49219 0.15625 0.58984 0.39844 0.10156 0.23828 0.046875 0.51562-0.13672 0.69922s-0.46094 0.23828-0.69922 0.13672c-0.23828-0.097656-0.39453-0.33203-0.39453-0.58984 0-0.17188 0.066406-0.33594 0.1875-0.45703 0.11719-0.11719 0.28125-0.1875 0.45312-0.1875zm-2.4023-2.3047c0.25781 0 0.49219 0.15625 0.58984 0.39844 0.10156 0.23828 0.046875 0.51562-0.13672 0.69922s-0.46094 0.23828-0.69922 0.13672c-0.24219-0.097656-0.39844-0.33203-0.39844-0.58984 0-0.35547 0.28906-0.64453 0.64453-0.64453zm-1.7148 2.0742-0.003907 0.003906c0.32031 0 0.60938 0.19141 0.73438 0.48828 0.12109 0.29688 0.054688 0.63672-0.17188 0.86328-0.22656 0.22656-0.56641 0.29297-0.86328 0.17187-0.29688-0.125-0.48828-0.41406-0.48828-0.73437 0-0.20703 0.082031-0.41016 0.23047-0.55859 0.14844-0.14844 0.35156-0.23047 0.55859-0.23047zm-4.75 0.46875h-0.003907c0.25781 0 0.49219 0.15625 0.59375 0.39844 0.097657 0.23828 0.042969 0.51562-0.14062 0.69922-0.18359 0.17969-0.45703 0.23828-0.69922 0.13672-0.23828-0.097656-0.39453-0.33203-0.39453-0.59375 0-0.16797 0.066406-0.33203 0.1875-0.45312 0.12109-0.11719 0.28125-0.1875 0.45312-0.1875zm3.1055 5.1562c2.2969 5.5391-5.8828 4.4844-5.8828 4.4844 7.0547 0.042968 5.8789-4.4805 5.8789-4.4805zm-8.4922-2.6523h-0.003907c0.57031 0 1.082 0.34375 1.2969 0.86719 0.21875 0.52344 0.097656 1.1289-0.30469 1.5312-0.39844 0.39844-1.0039 0.51953-1.5273 0.30078-0.52344-0.21484-0.86719-0.72656-0.86719-1.293 0-0.375 0.14844-0.73047 0.41016-0.99219 0.26562-0.26563 0.62109-0.41406 0.99219-0.41406z"/>
</svg>
